#!OML:ASF F:\VICON\USERDATA\INSTALL\rory3\rory3.ASF
:FULLY-SPECIFIED
:DEGREES
3139
root 14.8048 18.0684 -7.9415 -542.205 18.4221 -538.288
lowerback 11.1483 2.24309 0.476212
upperback 0.963778 3.14153 0.147695
thorax -5.22131 1.57795 -0.601773
lowerneck -10.318 -8.28071 -10.9082
upperneck 41.1506 -6.74636 4.81618
head 17.5937 -2.28172 3.4496
rclavicle -4.47887e-014 8.54774e-015
rhumerus -33.1514 -16.0269 -76.9779
rradius 40.5415
rwrist 1.28084
rhand -19.1632 10.2699
rfingers 7.12502
rthumb 7.14762 -19.5894
lclavicle -4.47887e-014 8.54774e-015
lhumerus -38.8216 20.7741 71.6939
lradius 27.4561
lwrist -5.89657
lhand -20.4719 22.7096
lfingers 7.12502
lthumb 5.88423 52.6079
rfemur -5.49644 -5.60624 17.4563
rtibia 21.7999
rfoot -9.92386 -3.29713
rtoes -4.72032
lfemur -5.3867 -7.10839 -8.06163
ltibia 36.3707
lfoot -0.599207 12.3713
ltoes -2.39472
3140
root 14.8558 18.0709 -7.93618 -542.202 19.0975 -538.343
lowerback 11.1335 2.29247 0.396978
upperback 0.989396 3.19724 0.141559
thorax -5.18948 1.60759 -0.570922
lowerneck -10.3383 -8.31461 -10.8681
upperneck 41.2436 -6.81988 4.83525
head 17.6604 -2.30562 3.4415
rclavicle -6.56238e-014 3.18055e-015
rhumerus -32.959 -15.596 -77.1174
rradius 40.9443
rwrist 1.18279
rhand -19.3838 10.7473
rfingers 7.12502
rthumb 6.9347 -19.1192
lclavicle -6.56238e-014 3.18055e-015
lhumerus -38.7147 20.7793 71.8895
lradius 27.4555
lwrist -5.7198
lhand -19.8269 23.3732
lfingers 7.12502
lthumb 6.50692 53.2532
rfemur -5.44349 -5.65569 17.5486
rtibia 21.6328
rfoot -10.1025 -2.41211
rtoes -4.30679
lfemur -5.79354 -6.96457 -8.19644
ltibia 37.2604
lfoot -0.482244 12.3592
ltoes -4.04042
3141
root 14.9009 18.0701 -7.93765 -542.189 19.833 -538.389
lowerback 11.0119 2.34368 0.40281
upperback 1.04504 3.26495 0.121633
thorax -5.06122 1.64227 -0.597847
lowerneck -10.2114 -8.31709 -11.0061
upperneck 41.185 -6.92198 5.07884
head 17.6287 -2.34689 3.55846
rclavicle -6.64686e-015 -4.57205e-015
rhumerus -32.7076 -15.0284 -77.3032
rradius 41.233
rwrist 0.941574
rhand -19.5198 11.1309
rfingers 7.12502
rthumb 6.80337 -18.7398
lclavicle -6.64686e-015 -4.57205e-015
lhumerus -38.7258 20.8972 72.037
lradius 27.509
lwrist -5.60524
lhand -19.2589 23.9822
lfingers 7.12502
lthumb 7.05529 53.8447
rfemur -5.47248 -5.7675 17.6442
rtibia 21.5481
rfoot -10.2954 -1.62258
rtoes -6.16627
lfemur -6.13715 -6.84975 -8.36146
ltibia 38.025
lfoot -0.583154 11.7566
ltoes -6.15545
3142
root 14.945 18.0696 -7.94163 -542.231 20.5213 -538.382
lowerback 10.9476 2.37396 0.480652
upperback 1.11562 3.31554 0.105675
thorax -4.94556 1.66768 -0.660409
lowerneck -10.0397 -8.31831 -11.017
upperneck 41.0829 -7.01259 5.18017
head 17.5407 -2.38438 3.58545
rclavicle 3.36567e-014 -8.34896e-015
rhumerus -32.52 -14.3084 -77.5361
rradius 41.6839
rwrist 0.542994
rhand -19.4352 11.5865
rfingers 7.12502
rthumb 6.88503 -18.2815
lclavicle 3.36567e-014 -8.34896e-015
lhumerus -38.7597 20.884 72.1989
lradius 27.5572
lwrist -5.46627
lhand -19.4664 24.044
lfingers 7.12502
lthumb 6.8549 53.913
rfemur -5.40407 -5.7245 17.7745
rtibia 21.5082
rfoot -10.5531 -0.948295
rtoes -6.512
lfemur -6.37533 -6.77689 -8.47763
ltibia 38.7139
lfoot -0.933976 10.3592
ltoes -6.26241
3143
root 14.9913 18.072 -7.94157 -542.256 21.2589 -538.298
lowerback 10.9732 2.40311 0.539754
upperback 1.1562 3.36499 0.141044
thorax -4.91554 1.69232 -0.664103
lowerneck -9.95569 -8.33631 -11.0201
upperneck 41.1534 -7.05001 5.18539
head 17.5655 -2.40245 3.58577
rclavicle -1.71824e-014 -5.76476e-015
rhumerus -32.4537 -13.6272 -77.7169
rradius 42.3227
rwrist 0.307937
rhand -19.1107 11.3722
rfingers 7.12502
rthumb 7.19828 -18.4853
lclavicle -1.71824e-014 -5.76476e-015
lhumerus -38.6786 20.8629 72.3887
lradius 27.5431
lwrist -5.31226
lhand -19.7689 24.1277
lfingers 7.12502
lthumb 6.5629 54.006
rfemur -5.33236 -5.50961 17.9732
rtibia 21.4951
rfoot -10.8186 -0.173075
rtoes -4.9652
lfemur -6.6223 -6.71965 -8.50787
ltibia 39.3928
lfoot -1.52599 8.77096
ltoes -5.43788
3144
root 15.0316 18.073 -7.93518 -542.202 22.0615 -538.149
lowerback 11.1145 2.42558 0.683416
upperback 1.1274 3.41453 0.172328
thorax -5.01742 1.71271 -0.72719
lowerneck -9.86298 -8.38842 -11.1088
upperneck 41.2943 -7.10815 5.20003
head 17.6405 -2.43836 3.60649
rclavicle 2.55066e-014 -9.93923e-016
rhumerus -32.4691 -12.9473 -77.9039
rradius 42.9626
rwrist 0.293247
rhand -19.111 10.8487
rfingers 7.12502
rthumb 7.19801 -19.0089
lclavicle 2.55066e-014 -9.93923e-016
lhumerus -38.6083 20.9316 72.4836
lradius 27.4603
lwrist -5.27606
lhand -19.8502 24.4507
lfingers 7.12502
lthumb 6.4844 54.3314
rfemur -5.4013 -5.13163 18.2689
rtibia 21.5049
rfoot -10.9096 0.419715
rtoes -3.4729
lfemur -6.96802 -6.61856 -8.47982
ltibia 40.0725
lfoot -2.29123 7.31336
ltoes -4.94717
3145
root 15.0633 18.0682 -7.92759 -542.166 22.8336 -538.052
lowerback 11.3321 2.41053 0.840906
upperback 1.05527 3.41476 0.178683
thorax -5.20561 1.70629 -0.821739
lowerneck -9.69404 -8.36224 -10.9142
upperneck 41.3464 -7.02069 4.909
head 17.5838 -2.41352 3.45486
rclavicle -4.97707e-014 4.77083e-015
rhumerus -32.474 -12.3282 -78.0428
rradius 43.4268
rwrist 0.409709
rhand -19.3226 10.8877
rfingers 7.12502
rthumb 6.99379 -18.9768
lclavicle -4.97707e-014 4.77083e-015
lhumerus -38.6851 21.0062 72.5009
lradius 27.419
lwrist -5.20368
lhand -19.9699 24.0529
lfingers 7.12502
lthumb 6.36888 53.9371
rfemur -5.54514 -4.8634 18.5049
rtibia 21.6053
rfoot -10.8996 0.91431
rtoes -2.6976
lfemur -7.35165 -6.51656 -8.55127
ltibia 40.7335
lfoot -3.05104 5.7783
ltoes -5.91176
